# xmcd
#
# Track frame offsets: 
#        150
#        15427
#        32226
#        49535
#        64859
#        78405
#        90850
#        106529
#        123274
#        138999
#        152914
#        167532
#        184778
#
# Disc length: 2707 seconds
#
# Revision: 1
# Processed by: cddbd v1.5.2PL0 Copyright (c) Steve Scherf et al.
# Submitted via: ExactAudioCopy v0.99pb5
#
DISCID=910a910d
DTITLE=Σωκράτης Μάλαμας - Ο φύλακας κι ο βασιλιάς
DYEAR=2000
DGENRE=Folk
TTITLE0=Ο φύλακας κι ο βασιλιάς
TTITLE1=Τίποτα δε χάθηκε
TTITLE2=Φύλλα αλκαλικά
TTITLE3=ατο μετάξι
TTITLE4=Όλα ζούν αν τα θυμάσαι
TTITLE5=Ανήσυχες μέρες
TTITLE6=Του χιονιού τ σκυλιά
TTITLE7=Πουλί σε δέντρο αρχοντικό
TTITLE8=’νοιγμα στα πέρατα
TTITLE9=Το λιμάνι
TTITLE10=Έπιασε βροχή
TTITLE11=Πριγκηπέσα
TTITLE12=Χαμένο ρούχο
EXTD=
EXTT0=
EXTT1=
EXTT2=
EXTT3=
EXTT4=
EXTT5=
EXTT6=
EXTT7=
EXTT8=
EXTT9=
EXTT10=
EXTT11=
EXTT12=
PLAYORDER=
